<svg width="24" height="24" viewBox="0 0 24 24" fill="none" xmlns="http://www.w3.org/2000/svg">
<path d="M22 16.92V19.92C22.0011 20.1985 21.9441 20.4742 21.8325 20.7294C21.7209 20.9846 21.5573 21.2136 21.3521 21.4019C21.1469 21.5902 20.9046 21.7335 20.6407 21.8227C20.3769 21.912 20.0974 21.9451 19.82 21.92C16.7428 21.5857 13.787 20.5342 11.19 18.85C8.77383 17.3147 6.72534 15.2662 5.19 12.85C3.49998 10.2412 2.44824 7.27103 2.12 4.18004C2.09501 3.9035 2.12787 3.6248 2.2165 3.36166C2.30512 3.09852 2.44757 2.85673 2.63476 2.65166C2.82196 2.44659 3.0498 2.28275 3.30379 2.17056C3.55778 2.05837 3.83234 2.0003 4.11 2.00004H7.11C7.59531 1.99526 8.06579 2.16711 8.43376 2.48357C8.80173 2.80002 9.04208 3.23948 9.11 3.72004C9.23662 4.6801 9.47145 5.62276 9.81 6.53004C9.94454 6.88796 9.97366 7.27695 9.89391 7.65092C9.81415 8.02488 9.62886 8.36815 9.36 8.64004L8.09 9.91004C9.51355 12.4136 11.5865 14.4865 14.09 15.91L15.36 14.64C15.6319 14.3712 15.9752 14.1859 16.3491 14.1061C16.7231 14.0264 17.1121 14.0555 17.47 14.19C18.3773 14.5286 19.3199 14.7634 20.28 14.89C20.7658 14.9586 21.2094 15.2032 21.5265 15.5775C21.8437 15.9518 22.0122 16.4296 22 16.92Z" stroke="#69B99D" stroke-width="2" stroke-linecap="round" stroke-linejoin="round"/>
</svg>
